PathFileType   4   (X/Y/Z)																																																																																																																							
DataRate	CameraRate	NumFrames	NumMarkers	Units	OrigDataRate	OrigDataStartFrame	OrigNumFrames																																																																																																																
120	120	6	37	mm	120	40	156																																																																																																																
Frame#	Time	Sternum	R.Acromium	L.Acromium	Top.Head	R.ASIS	L.ASIS	V.Sacral	R.Thigh.Upper	R.Thigh.Front	R.Thigh.Rear	R.Knee.Lat	R.Knee.Med	R.Shank.Upper	R.Shank.Front	R.Shank.Rear	R.Ankle.Lat	R.Ankle.Med	R.Heel	R.Midfoot.Sup	R.Midfoot.Lat	R.Toe.Lat	R.Toe.Med	R.Toe.Tip	L.Thigh.Upper	L.Thigh.Front	L.Thigh.Rear	L.Knee.Lat	L.Knee.Med	L.Shank.Upper	L.Shank.Front	L.Shank.Rear	L.Ankle.Lat	L.Ankle.Med	L.Heel	L.Midfoot.Sup	L.Midfoot.Lat	L.Toe.Lat	L.Toe.Med	L.Toe.Tip																																																																															
 	 	X1	Y1	Z1	X2	Y2	Z2	X3	Y3	Z3	X4	Y4	Z4	X5	Y5	Z5	X6	Y6	Z6	X7	Y7	Z7	X8	Y8	Z8	X9	Y9	Z9	X10	Y10	Z10	X11	Y11	Z11	X12	Y12	Z12	X13	Y13	Z13	X14	Y14	Z14	X15	Y15	Z15	X16	Y16	Z16	X17	Y17	Z17	X18	Y18	Z18	X19	Y19	Z19	X20	Y20	Z20	X21	Y21	Z21	X22	Y22	Z22	X23	Y23	Z23	X24	Y24	Z24	X25	Y25	Z25	X26	Y26	Z26	X27	Y27	Z27	X28	Y28	Z28	X29	Y29	Z29	X30	Y30	Z30	X31	Y31	Z31	X32	Y32	Z32	X33	Y33	Z33	X34	Y34	Z34	X35	Y35	Z35	X36	Y36	Z36	X37	Y37	Z37	X38	Y38	Z38	X39	Y39	Z39	
																																																																																																																							
	40	0.54167	-1891.44527	-0.001002095	1361.467373	-1953.503364	-161.9453511	1440.140443	-1950.862223	165.1979949	1439.373841	-1810.449081	-10.08809499	1642.194826	-1925.756389	-117.7896216	1022.135447	-1919.590027	119.399185	1015.137426	-2102.082183	-5.611229398	1013.091791	-1876.731015	-173.4115572	708.5580343	-1795.824641	-67.95180237	662.5299042	-1848.291649	-162.9734513	577.2955917	-1862.184256	-142.5943975	473.8903668	-1858.574045	-8.355853302	455.6758344	-1904.614099	-154.6508593	439.5543516	-1825.685046	-93.81404015	391.2618931	-1897.523158	-165.0122006	342.9708691	-1930.305652	-136.9768135	25.73788856	-1919.869281	-37.22329306	40.89456073	-1997.451333	-79.10633289	-10.52949671	-1848.207077	-41.71858376	20.1591066	-1851.155773	-155.3841374	-1.293950101	-1753.88627	-165.0174344	-14.80454422	-1753.143349	-50.15543807	-0.757897621	-1689.150885	-83.79364801	7.699394776	-1978.555248	178.8034865	692.2429832	-1895.062795	95.03600439	640.7063052	-1997.18055	161.7547942	572.85326	-2035.730516	144.5366564	431.2123858	-2034.326491	15.87918741	431.9105468	-2044.490698	162.4477689	406.8500286	-2005.106443	100.5194763	343.613354	-2071.50025	174.5177999	362.5198206	-2111.013771	136.4325857	13.58218554	-2102.212746	34.31683281	38.4973812	-2194.181344	76.11439987	-5.054209171	-2011.611158	48.15109198	-2.823450971	-2031.086212	152.6198727	-2.76719335	-1964.149532	163.716336	-27.58107064	-1946.09732	55.50675189	-27.65465179	-1893.980919	82.30973808	-26.92606163
	41	0.55	-1885.74748	-0.001002095	1360.645801	-1947.650008	-161.9453511	1439.441335	-1945.010387	165.1979949	1438.669516	-1804.196776	-10.08809499	1641.212671	-1920.64173	-117.7896216	1021.683665	-1914.470791	119.399185	1014.68968	-2096.961569	-5.611229398	1012.524628	-1869.8282	-173.4115572	709.0799811	-1788.555154	-67.95180237	663.7024301	-1840.336654	-162.9734513	578.049927	-1853.399212	-142.5943975	474.5365721	-1849.642985	-8.355853302	456.3515899	-1894.666932	-154.6508593	439.377157	-1814.538098	-93.81404015	393.1026834	-1885.127937	-165.0122006	343.0046603	-1909.851635	-136.9768135	25.04209242	-1899.803151	-37.22329306	40.45865819	-1976.449758	-79.10633289	-12.171889	-1827.683086	-41.71858376	20.7540231	-1830.309352	-155.3841374	-0.740887468	-1732.847964	-165.0174344	-12.78954482	-1732.316024	-50.15543807	1.266672762	-1668.457751	-83.79364801	10.68380103	-1974.655416	178.8034865	691.6057021	-1891.448663	95.03600439	639.6090179	-1993.939341	161.7547942	572.3205893	-2033.27043	144.5366564	430.8946278	-2031.862573	15.87918741	431.5850294	-2042.226867	162.4477689	406.5842466	-2003.247858	100.5194763	343.0969763	-2069.519388	174.5177999	362.4276897	-2111.263794	136.4325857	13.74990701	-2102.303599	34.31683281	38.60830458	-2194.449648	76.11439987	-4.803944378	-2011.877983	48.15109198	-2.697714874	-2031.352994	152.6198727	-2.628173646	-1964.433255	163.716336	-27.4877016	-1946.381098	55.50675189	-27.57359584	-1894.264212	82.30973808	-26.88055361
	42	0.55833	-1880.011153	-0.001002095	1359.780612	-1941.757141	-161.9453511	1438.698872	-1939.119057	165.1979949	1437.921815	-1797.903656	-10.08809499	1640.185042	-1915.486627	-117.7896216	1021.205476	-1909.310222	119.399185	1014.216319	-2091.799251	-5.611229398	1011.908584	-1862.974395	-173.4115572	709.5222282	-1781.359568	-67.95180237	664.7623118	-1832.490038	-162.9734513	578.7195894	-1844.767232	-142.5943975	475.1101518	-1840.873208	-8.355853302	456.9541777	-1884.868924	-154.6508593	439.1721128	-1803.607492	-93.81404015	394.9167555	-1872.921903	-165.0122006	343.0684227	-1889.683196	-136.9768135	24.58684564	-1880.023542	-37.22329306	40.24997538	-1955.781097	-79.10633289	-13.45603964	-1807.471003	-41.71858376	21.46894489	-1809.807759	-155.3841374	-0.059362562	-1712.19305	-165.0174344	-10.79532471	-1711.850323	-50.15543807	3.266778638	-1648.124565	-83.79364801	13.54243826	-1970.706764	178.8034865	690.9388779	-1887.78903	95.03600439	638.4825322	-1990.650506	161.7547942	571.7623069	-2030.763629	144.5366564	430.5561652	-2029.351973	15.87918741	431.2387653	-2039.922554	162.4477689	406.2997451	-2001.356949	100.5194763	342.560505	-2067.501456	174.5177999	362.3214849	-2111.510912	136.4325857	13.92234695	-2102.389361	34.31683281	38.72199052	-2194.716231	76.11439987	-4.542577738	-2012.143024	48.15109198	-2.574498464	-2031.617977	152.6198727	-2.490220766	-1964.717068	163.716336	-27.4003789	-1946.664981	55.50675189	-27.49993296	-1894.547585	82.30973808	-26.8463271
	43	0.56667	-1874.226591	-0.001002095	1358.870178	-1935.813341	-161.9453511	1437.912769	-1933.17683	165.1979949	1437.130394	-1791.553918	-10.08809499	1639.108495	-1910.287905	-117.7896216	1020.70315	-1904.105111	119.399185	1013.719644	-2086.591954	-5.611229398	1011.24504	-1856.169224	-173.4115572	709.8816839	-1774.237652	-67.95180237	665.704228	-1824.75396	-162.9734513	579.2994968	-1836.292855	-142.5943975	475.6052397	-1832.269609	-8.355853302	457.4774625	-1875.228314	-154.6508593	438.9336432	-1792.901681	-93.81404015	396.6928747	-1860.91824	-165.0122006	343.1533094	-1869.83143	-136.9768135	24.35555083	-1860.560431	-37.22329306	40.25181177	-1935.47576	-79.10633289	-14.41026684	-1787.596572	-41.71858376	22.29646551	-1789.674158	-155.3841374	0.741603271	-1691.937352	-165.0174344	-8.819207858	-1691.763827	-50.15543807	5.246001051	-1628.166305	-83.79364801	16.28758297	-1966.706249	178.8034865	690.2444147	-1884.08102	95.03600439	637.3285345	-1987.311328	161.7547942	571.1804041	-2028.207782	144.5366564	430.1991386	-2026.792358	15.87918741	430.873891	-2037.5758	162.4477689	405.9988425	-1999.432309	100.5194763	342.0061033	-2065.444765	174.5177999	362.2038198	-2111.75593	136.4325857	14.10316264	-2102.47067	34.31683281	38.84197757	-2194.981964	76.11439987	-4.266038988	-2012.407175	48.15109198	-2.450600671	-2031.882051	152.6198727	-2.350040974	-1965.001992	163.716336	-27.31612289	-1946.949994	55.50675189	-27.43076935	-1894.832071	82.30973808	-26.82073645
	44	0.575	-1868.384223	-0.001002095	1357.913392	-1929.807436	-161.9453511	1437.083133	-1927.172547	165.1979949	1436.29531	-1785.132386	-10.08809499	1637.9802	-1905.042216	-117.7896216	1020.178349	-1898.852135	119.399185	1013.201301	-2081.336295	-5.611229398	1010.536175	-1849.412008	-173.4115572	710.1558502	-1767.188686	-67.95180237	666.5238055	-1817.129719	-162.9734513	579.7853008	-1827.97931	-142.5943975	476.016657	-1823.835694	-8.355853302	457.9160145	-1865.75223	-154.6508593	438.6566258	-1782.427724	-93.81404015	398.4200313	-1849.129037	-165.0122006	343.2505464	-1850.326629	-136.9768135	24.33045981	-1841.442938	-37.22329306	40.44637006	-1915.561008	-79.10633289	-15.06603592	-1768.08561	-41.71858376	23.23076891	-1769.930996	-155.3841374	1.654786937	-1672.096916	-165.0174344	-6.853147757	-1672.074839	-50.15543807	7.2131142	-1608.599887	-83.79364801	18.93880415	-1962.651046	178.8034865	689.5242843	-1880.321893	95.03600439	636.1489218	-1983.919109	161.7547942	570.5769119	-2025.600332	144.5366564	429.8256675	-2024.181171	15.87918741	430.4925241	-2035.184371	162.4477689	405.6838321	-1997.472147	100.5194763	341.4359937	-2063.347263	174.5177999	362.0772419	-2111.998647	136.4325857	14.2959393	-2102.547208	34.31683281	38.9717436	-2195.24675	76.11439987	-3.970142363	-2012.670364	48.15109198	-2.323157395	-2032.145139	152.6198727	-2.204629252	-1965.288143	163.716336	-27.23240741	-1947.236259	55.50675189	-27.36370949	-1895.117795	82.30973808	-26.80176344
	45	0.58333	-1862.475389	-0.001002095	1356.90981	-1923.729436	-161.9453511	1436.210508	-1921.096235	165.1979949	1435.417061	-1778.625804	-10.08809499	1636.798239	-1899.746304	-117.7896216	1019.631949	-1893.548117	119.399185	1012.662101	-2076.029056	-5.611229398	1009.784869	-1842.702019	-173.4115572	710.3427781	-1760.211712	-67.95180237	667.2176193	-1809.61795	-162.9734513	580.1733856	-1819.828671	-142.5943975	476.3399313	-1815.573729	-8.355853302	458.2651343	-1856.446499	-154.6508593	438.3366688	-1772.191149	-93.81404015	400.0875793	-1837.565259	-165.0122006	343.3516736	-1831.198764	-136.9768135	24.49289045	-1822.699788	-37.22329306	40.81495995	-1896.061724	-79.10633289	-15.45727443	-1748.964492	-41.71858376	24.26731255	-1750.600641	-155.3841374	2.67445571	-1652.688684	-165.0174344	-4.88470551	-1652.802962	-50.15543807	9.181109552	-1589.444657	-83.79364801	21.52155539	-1958.538617	178.8034865	688.7803855	-1876.50905	95.03600439	634.9457413	-1980.471112	161.7547942	569.953732	-2022.938304	144.5366564	429.4376308	-2021.515439	15.87918741	430.0965456	-2032.745616	162.4477689	405.3567584	-1995.474156	100.5194763	340.8522249	-2061.206406	174.5177999	361.9440106	-2112.237772	136.4325857	14.50395649	-2102.617609	34.31683281	39.1144721	-2195.50945	76.11439987	-3.650787194	-2012.93148	48.15109198	-2.189916608	-2032.406124	152.6198727	-2.051536458	-1965.574675	163.716336	-27.14745386	-1947.522935	55.50675189	-27.29715749	-1895.403925	82.30973808	-26.78833991
